<?xml version="1.0" encoding="utf-8"?>
<!-- Generator: Adobe Illustrator 22.1.0, SVG Export Plug-In . SVG Version: 6.00 Build 0)  -->
<svg version="1.1" xmlns="http://www.w3.org/2000/svg" xmlns:xlink="http://www.w3.org/1999/xlink" x="0px" y="0px"
	 viewBox="0 0 2272 1872" style="enable-background:new 0 0 2272 1872;" xml:space="preserve">
<style type="text/css">
	.st0{fill:#1C1C2D;}
	.st1{fill:#513420;}
	.st2{fill:#B26246;}
	.st3{fill:#E27C5D;}
	.st4{fill:#8681BD;}
	.st5{fill:#44617A;}
	.st6{fill:#87522D;}
	.st7{fill:#FC8B3F;}
	.st8{fill:#774E32;}
	.st9{fill:#774829;}
	.st10{fill:#EF7C2E;}
	.st11{fill:#FEC83D;}
	.st12{fill:#EC5B44;}
	.st13{fill:#B23D30;}
	.st14{fill:#4DA8BB;}
	.st15{fill:#36838E;}
	.st16{fill:#5FCEDD;}
	.st17{fill:#FCD2BB;}
	.st18{fill:#2D3E51;}
	.st19{fill:#F4B392;}
	.st20{fill:#AA392D;}
	.st21{fill:#CC9376;}
	.st22{fill:#43617C;}
	.st23{fill:none;}
	.st24{fill:#678C53;}
</style>
<g id="Background">
	<rect class="st0" width="2272" height="1872"/>
</g>
<g id="object">
	<g>
		<g>
			<rect x="1017.5" y="227.1" class="st1" width="306.5" height="364.8"/>
			<rect x="1047.8" y="263.2" class="st2" width="245.9" height="292.7"/>
			<path class="st3" d="M1200.4,263.2l-152.6,180.3v73.4c48.9-62.5,158.9-203.1,198.3-253.7H1200.4z"/>
			<path class="st3" d="M1293.7,274.2l-238.3,281.7h60.4c56.1-70.7,140-176.3,177.9-224.4V274.2z"/>
		</g>
		<g>
			<rect x="632.7" y="322.9" class="st1" width="226" height="269"/>
			<rect x="655.1" y="349.5" class="st2" width="181.4" height="215.9"/>
			<path class="st3" d="M767.6,349.5l-112.5,133v54.1c36.1-46.1,117.2-149.8,146.3-187.1H767.6z"/>
			<path class="st3" d="M836.4,357.6L660.7,565.4h44.6c41.4-52.1,103.2-130,131.2-165.5V357.6z"/>
		</g>
		<g>
			<rect x="1451.6" y="322.9" class="st1" width="226" height="269"/>
			<rect x="1474" y="349.5" class="st2" width="181.4" height="215.9"/>
			<path class="st3" d="M1586.5,349.5l-112.5,133v54.1c36.1-46.1,117.2-149.8,146.3-187.1H1586.5z"/>
			<path class="st3" d="M1655.3,357.6l-175.8,207.8h44.6c41.4-52.1,103.2-130,131.2-165.5V357.6z"/>
		</g>
		<path class="st1" d="M501.3,1068.8c-1.7-22.1-3.3-44.1-5-66.2c-3.3-44.1-6.7-88.3-10.2-132.4c-3.4-42.6-5.9-85.4-10.3-127.9
			c-2-19.4-5.4-39.6-16.6-56c-10.8-16-29.7-28.6-49.6-22.9c-10.5,3-18.8,10.3-25.4,18.8c-6.8,8.8-12.8,19-15.4,29.9
			c-2.5,10.7-1.4,22.5,4.7,31.8c2.8,4.3,6.7,8.1,11.4,10.4c5.8,2.8,10.7,2.5,16.4-0.2c3.5-1.7,4.3-7.5,1.3-10
			c-2.3-1.9-4.5-4.2-6.6-6.2c-2.1-2-4.1-4.9-4.9-7c-2.2-5.7-0.9-12.7,1.8-19.1c3.1-7.3,7.7-14.4,13.1-19.8c4.3-4.3,9.1-7.2,14.8-6.8
			c2.2,0.2,4.8,1,7.2,2.4c3.4,1.9,5.9,4.2,8.6,7.2c4.2,4.7,7.6,11.7,9.8,17.9c5.4,15.8,6.2,32.1,7.4,48.7
			c5.7,80.1,11.4,160.2,17.4,240.3c1.7,22.4,3.4,44.7,5,67.1c1.7,23.1,2.9,46.3,6.3,69.3c0.8,5.7,7.7,9.1,12.8,8.4
			c5.7-0.9,10.1-5.5,10.1-11.5C505.4,1112.9,503,1090.8,501.3,1068.8z"/>
		<g>
			<polygon class="st4" points="610.8,1457 474,1447.8 370.9,905.1 610.8,905.1 			"/>
			<path class="st5" d="M493.5,1383.8c-1.6-8-3.3-15.9-4.9-23.9c-3.2-15.9-6.5-31.8-9.7-47.8c-6.4-31.8-12.7-63.7-18.8-95.6
				c-12.1-63.8-24-127.6-35.1-191.6c-6.3-36-12.1-72.2-20.4-107.8c-0.6-2.5-4.8-2-4.6,0.6c2.3,32.1,6.9,64.1,11.8,96
				c5,32.4,10.1,64.9,15.6,97.2c10.9,64.4,22.8,128.6,35.5,192.6c3.5,17.7,7.1,35.4,10.8,53c1.9,9.1,3.9,18.2,5.8,27.4
				c1.9,9,3.3,18.2,7.7,26.3c2.6,4.7,9.1,2.2,9.4-2.5C497.3,1399.6,495.2,1391.6,493.5,1383.8z"/>
			<path class="st5" d="M531.4,1386.6c-1.6-8-3.3-15.9-4.9-23.9c-3.2-15.9-6.5-31.8-9.7-47.8c-6.4-31.8-12.7-63.7-18.8-95.6
				c-12.1-63.8-24-127.6-35.1-191.6c-6.3-36-12.1-72.2-20.4-107.8c-0.6-2.5-4.8-2-4.6,0.6c2.3,32.1,6.9,64.1,11.8,96
				c5,32.4,10.1,64.9,15.6,97.2c10.9,64.4,22.8,128.6,35.5,192.6c3.5,17.7,7.1,35.4,10.8,53c1.9,9.1,3.9,18.2,5.8,27.4
				c1.9,9,3.3,18.2,7.7,26.3c2.6,4.7,9.1,2.2,9.4-2.5C535.1,1402.4,533,1394.5,531.4,1386.6z"/>
			<path class="st5" d="M569.2,1389.4c-1.6-8-3.3-15.9-4.9-23.9c-3.2-15.9-6.5-31.8-9.7-47.8c-6.4-31.8-12.7-63.7-18.8-95.6
				c-12.1-63.8-24-127.6-35.1-191.6c-6.3-36-12.1-72.2-20.4-107.8c-0.6-2.5-4.8-2-4.6,0.6c2.3,32.1,6.9,64.1,11.8,96
				c5,32.4,10.1,64.9,15.6,97.2c10.9,64.4,22.8,128.6,35.5,192.6c3.5,17.7,7.1,35.4,10.8,53c1.9,9.1,3.9,18.2,5.8,27.4
				c1.9,9,3.3,18.2,7.7,26.3c2.6,4.7,9.1,2.2,9.4-2.5C573,1405.3,570.8,1397.3,569.2,1389.4z"/>
			<path class="st5" d="M607.1,1392.3c-1.6-8-3.3-15.9-4.9-23.9c-3.2-15.9-6.5-31.8-9.7-47.8c-6.4-31.8-12.7-63.7-18.8-95.6
				c-12.1-63.8-24-127.6-35.1-191.6c-6.3-36-12.1-72.2-20.4-107.8c-0.6-2.5-4.8-2-4.6,0.6c2.3,32.1,6.9,64.1,11.8,96
				c5,32.4,10.1,64.9,15.6,97.2c10.9,64.4,22.8,128.6,35.5,192.6c3.5,17.7,7.1,35.4,10.8,53c1.9,9.1,3.9,18.2,5.8,27.4
				c1.9,9,3.3,18.2,7.7,26.3c2.6,4.7,9.1,2.2,9.4-2.5C610.8,1408.1,608.7,1400.1,607.1,1392.3z"/>
		</g>
		<path class="st6" d="M196.1,1426.3L196.1,1426.3c0,103.9,84.2,188.1,188.1,188.1h1526.1c103.9,0,188.1-84.2,188.1-188.1v0H196.1z"
			/>
		<path class="st1" d="M1814.7,1594c-2.5-11.5-11-20.6-19.8-28.4c-32.7-28.6-74.6-44.9-107.2-73.6c-21.2-18.6-37.4-41.5-52-65.8
			H675.9c-2.5,3.1-4.8,6.2-6.9,9.5c-13.7,21-20.7,47-16.3,71.7c3.4,19.3,13.3,36.8,24.6,52.8c14.2,20.1,30.6,38,48.7,54.1h1086.6
			C1815.3,1608.1,1816.3,1601.2,1814.7,1594z"/>
		<path class="st7" d="M911.4,1508.8c245.7-0.9,491.4,14.5,737,5.8c149.7-5.3,300.4-19.8,446.5-51.9c2.3-11.8,3.6-24,3.6-36.6v0
			H196.1v0c0,1.2,0,2.3,0,3.5c147.9,33.9,296.7,66.7,448.1,76.3C733.2,1511.6,822.3,1509.2,911.4,1508.8z"/>
		<g>
			<polygon class="st1" points="1806.8,1426.3 578.7,1426.3 509.2,615.1 1832.4,594.7 			"/>
			<g>
				<path class="st8" d="M581.6,1043.1c4-29.6,1.6-58.9-4.5-88.1c-3.3-15.9-7.6-31.6-12-47.2c-4.2-14.9-8.8-29.8-15.2-44
					c-5.6-12.2-13-23.6-22.2-33.1l1.4,16.5c3.2,5,6,10.1,8.5,15.3c6.4,13.4,10.6,27.7,14.3,42.1c3.8,14.7,7.4,29.5,10.7,44.4
					c6.1,27.8,9.2,55.9,6.4,84.3c-2.3,23.6-8.5,47.1-18.1,68.9l1.6,19.1l0.6,7.5c1.4-2.5,2.7-5,4-7.6
					C569.6,1096.8,577.9,1070.4,581.6,1043.1z"/>
				<path class="st8" d="M590.9,1306.2c-1.1-22.2-2.6-44.5-4.3-66.7c-1.5-19.1-1.7-40.8-13.1-57c-4.4-6.2-10.1-11.7-17-15l0.7,8.6
					l0.7,8c1.2,1.1,2.4,2.3,3.4,3.6c11.7,14.2,11.5,35.4,12.9,52.8c3.6,42.3,6.1,84.7,8.3,127.1c1,19.6,1.8,39.1,2.5,58.7h8.2
					C593.5,1386.2,592.9,1346.2,590.9,1306.2z"/>
				<path class="st8" d="M622,1318.5c2.4-47.9,9.5-95.4,12.8-143.2c1.6-24.1,2.2-48.2,0.7-72.3c-1.6-25.2-5-50.3-8.9-75.3
					c-7.4-47.9-16.7-95.7-17.3-144.3c-0.3-25.2,1.8-50.2,7.3-74.8c2.8-12.4,6.7-24.4,11.4-36.2c2.3-5.8,4.8-11.6,7.8-17.1
					c1.2-2.1,2.7-4.6,4.6-6.6c4.7,3.5,9.9,6.4,15.5,8.7c1.8,0.8,3.7,1.4,5.6,2.1c-32,43.8-36.2,102.6-19.4,153.9
					c5.5,16.6,12.6,34.1,22.8,48.4c2.4,3.4,6.3,3.4,8.7,1.5v-10.7c-6.2-12-12.6-23.7-17.3-36.6c-5-13.7-8.7-28-10.7-42.5
					c-3.8-28-0.6-56.6,9-83.1c3.6-10,8.3-19.8,13.9-28.9c1.7,0.4,3.3,0.8,5,1.1V745c-1,1-1.9,2.1-2.9,3.1c-4.6-1.2-9.2-2.7-13.4-4.8
					c-14.2-7-23.4-18.7-29.3-33.2c-6.5-15.8-10-32.8-12.3-49.6c-2.1-15.6-2.6-31.3-0.9-47l-5.6,0.1c-4.6,26.9-4.8,54,1.4,80.8
					c3.1,13.5,7.3,27.3,15.2,38.9c2.8,4.1,6,7.8,9.5,11.1c-2.5,2.2-4.7,5-6.4,7.6c-6.1,9.4-10.8,19.8-14.8,30.2
					c-8.5,21.9-13.1,44.9-15.4,68.2c-4.8,49,1.8,97.9,9.2,146.3c7.8,51.1,15.9,101.8,14.1,153.7c-1.7,49.9-9.4,99.4-13.1,149.2
					c-3.1,42-3.4,85.7,6.9,126.8h14.2c-2.9-12.4-5.1-25.1-6.5-37.8C620.8,1365.2,620.8,1341.8,622,1318.5z"/>
				<path class="st8" d="M578.3,620c-4.7,10.6-10.9,20.5-17.6,30c-11,15.7-25.2,36.7-45.1,41.3l0.5,5.9l0,0.1
					c22.2-3.4,38-22.3,51.3-39.8c8-10.4,15.5-21.3,21-33.3c1.6-3.4,3-6.8,4.2-10.4l-8.8,0.1l-3.1,0C580,616,579.2,618,578.3,620z"/>
				<path class="st8" d="M513.3,663.1c6-3.3,11.5-7.7,16.4-12.5c9.5-9.3,18.9-22.5,22.6-36.3l-11.8,0.2c-0.9,2.7-1.8,5.3-3,7.8
					c-3.3,7.3-7.6,14.2-12.9,20.2c-3.4,3.9-7.5,7.9-12.1,11.4L513.3,663.1z"/>
				<path class="st8" d="M683.2,716.2c17.9,9.6,38.4,11.4,58.4,11c40.7-0.7,82.1-5.6,121.2-16.9c19.5-5.7,38.7-13.1,56.7-22.6
					c16.4-8.7,31.6-19.4,46.6-30.3c31.7-23.1,65.2-48.9,106-50.9c0,0,0.1,0,0.1,0l-30.7,0.5l-19.3,0.3c-15.4,7-29.9,16.4-43.7,26.1
					c-14.5,10.2-28.5,20.8-43.4,30.5c-16,10.4-33,19.1-50.9,25.9c-36.9,14-76.1,20.4-115.2,23.3c-19.8,1.4-40.5,3.2-60-0.8
					c-15.9-3.3-29.7-10.7-40.7-22.7c-18.4-20.2-26.6-48.8-27.7-76.4l-6.3,0.1c-1.6,24.9,3.3,50.6,16.6,71.9
					C658.9,697.9,669.8,709,683.2,716.2z"/>
				<path class="st8" d="M707.3,673.5c-21.2-13.2-37.9-35.8-40.5-60.9l-5.4,0.1c0.4,22.2,11.6,42.7,28.2,57.6
					c20.9,18.8,48.2,27.1,76,26.8c65.4-0.5,118.3-41.6,173.7-70.7c13.7-7.2,27.9-13.7,42.6-18.7l-29.7,0.5
					c-27,12.4-52,28.6-77.8,43.1C825.6,678.9,760.3,706.7,707.3,673.5z"/>
				<path class="st8" d="M1435.7,722.3c-8.1-4.6-16.3-8.9-24.7-12.9c-16.8-8-34.1-15.1-51.7-21.1c-35.5-12-72.5-19.7-109.8-22.8
					c-73.2-6.2-147.6,6.5-215,35.3c-23.1,9.9-46.2,21.7-67.6,35.8h20.9c13-7.3,26.3-13.9,39.9-20c32.2-14.4,66.3-25,101-31.6
					c70.8-13.5,144.6-9,213.5,12c19.5,5.9,38.6,13.2,57.1,21.8c9.2,4.2,18.1,8.9,27,13.6c2.6,1.4,5.2,2.8,7.8,4.3h23
					C1450.6,730.8,1443.1,726.5,1435.7,722.3z"/>
				<path class="st8" d="M1328,714.6c-28.4-8-57.7-12.7-87.2-14c-57.4-2.5-115,9-167.5,32.2c-2.8,1.2-5.6,2.5-8.3,3.8h28.8
					c17.1-6.4,34.6-11.6,52.4-15.5c55.1-12,112.9-10.9,167.6,2.8c13.6,3.4,26.8,7.8,39.8,12.7h33.5
					C1368.2,727.3,1348,720.2,1328,714.6z"/>
				<path class="st8" d="M1164.4,629.3c31.5,8.7,63.2,16.3,95.7,20.1c62.6,7.4,125-5.1,184.3-24.8c16.8-5.6,33.4-11.7,49.9-18.2
					c5.7-2.2,11.4-4.5,17-6.8l-110.8,1.7c-3.6,0.4-7.2,0.7-10.8,1.1c-18.7,1.9-37.5,3.8-56.2,5.8c-17.4,1.9-35,4.3-52.5,5.4
					c-13.7,0.8-29.1,0.5-39.1-9.8l-6.9,0.1c0.1,0.3,0.2,0.6,0.4,1c7.7,11,20.2,15.2,33.1,16.3c16.7,1.5,33.8-1.2,50.4-2.6
					c39-3.2,78-6.4,116.9-10.2c7.1-0.7,14.2-1.4,21.2-2.1c-1.1,0.4-2.2,0.8-3.3,1.2c-28.6,10.1-57.8,18.8-87.6,24.6
					c-29.8,5.7-60.1,8.1-90.4,6.3c-31.3-1.8-61.9-8.3-92.4-15.2c-16.1-3.7-32.4-7.3-48.3-11.7c-5.9-1.6-11.6-3.5-17.2-5.8l-15.8,0.2
					C1120.2,618.6,1143.6,623.6,1164.4,629.3z"/>
				<path class="st8" d="M1583.8,715.9c-11.4-6.5-23.5-11.7-35.8-16c-11.8-4.1-24.8-5.9-35.9-11.5c-8.6-4.4-17.9-13.2-16-23.9
					c1-5.8,5.1-10.9,8.8-15.3c3.6-4.4,7.5-8.5,11.6-12.3c8.3-7.7,17.7-14.3,27.5-20c12.2-7.1,25-13,38.1-18.3l-3.4,0.1l-16.6,0.3
					c-26.1,10.8-50.5,25.1-68.3,47.4c-7.3,9.1-11.7,19.8-7.4,31.4c4.1,11,13.3,18.5,23.8,23c11.6,5,24.2,7.4,36.1,11.7
					c12,4.3,23.9,9.7,34.8,16.6c3.6,2.2,7.1,4.8,10.1,7.8h16.5C1601.9,727.6,1593,721.1,1583.8,715.9z"/>
				<path class="st8" d="M1693.4,906.3c5.3-33.2-4.3-67.3-24.7-93.7c-5.4-6.9-11.4-13.1-18-18.6v9c14.1,14.2,24.6,32.2,30.1,51.3
					c4.4,15.2,6,31.2,3.8,47c-2.6,18-10.2,34.8-19.8,50.1c-4.3,6.8-9.1,13.2-14.1,19.5v17.6c7.5-8.9,14.3-18.4,20.5-28
					C1681.8,944,1690.3,925.7,1693.4,906.3z"/>
				<path class="st8" d="M1693.7,998.9c15.9-22.1,31.2-45.3,40.1-71.2c8.9-25.8,9.1-52.7,0.3-78.5c-8.2-24.3-21.7-47.5-37.3-67.9
					c-12.3-16.2-27.7-31.5-46.2-40.4v8.9c13.2,8.7,24.3,20,34.1,32.7c14.3,18.6,26.7,40.2,35.2,62.1c9.5,24.4,11.5,49.3,3.7,74.5
					c-7.4,23.9-21.1,45.4-35.3,65.8c-8.7,12.4-17.8,24.5-27.4,36.1c-3.3,4.1-6.8,8.1-10.2,12v19.3c6.2-6.6,11.8-13.9,17.4-20.6
					C1677,1021.2,1685.5,1010.2,1693.7,998.9z"/>
				<path class="st8" d="M1634.5,735.1c-3.2-11.9-9.3-22.8-16.7-32.8c-5.1-6.9-10.8-13.4-16.5-19.8c-5.4-6-11.9-12-14.3-19.9
					c-4.4-14.2,4.8-29.5,15.5-38.3c15-12.3,35.3-16.1,53.2-22.1c2.3-0.8,2.4-3.4,1.2-4.8l-5.5,0.1c-28.9,8.1-66.1,14.9-74.9,48.6
					c-1.9,7.2-1.9,14.9,0.7,21.9c3,8.1,8.7,14.5,14.4,20.9c11.6,12.8,23.6,26.5,29.8,42.9c0.6,1.6,1.1,3.2,1.6,4.8h16.8
					C1638,736.1,1636.3,735.6,1634.5,735.1z"/>
				<path class="st8" d="M1804.3,775.2c-26-39.8-52.1-85.3-44.2-134.7c1.8-11.5,5.2-22.9,10.7-33.2c2.3-4.1,4.9-8.1,7.8-11.8
					l-12.4,0.2c-6.4,8.9-11.2,19.3-14.3,28.7c-7,21.2-7.4,45-2.8,66.7c11.6,53.9,49.2,96.7,75.7,143.5c0.1,0.1,0.1,0.2,0.2,0.3
					l0.1-2l0.8-24.7C1818.8,797.1,1811.4,786.2,1804.3,775.2z"/>
				<path class="st8" d="M1819.2,697.3c-6.2-21.9-12.2-44.4-9.9-67.4c1.2-12.1,5.1-24.7,12-35l-7,0.1c-4.6,6.6-8.1,14-10.4,21.8
					c-6.4,21.4-4.1,44,0.6,65.5c5.1,23.4,12.5,46.4,20.2,69c0.9,2.7,1.8,5.3,2.7,8l0-0.2l1-31.8
					C1825.1,717.4,1822.1,707.4,1819.2,697.3z"/>
				<path class="st8" d="M1773.2,927.3c-16.5,21-29.1,45.3-34.3,71.6c-5.8,29.2-1.5,58.2,9.5,85.7c11.2,27.9,26.3,55,43.3,79.7
					c6.7,9.7,14.1,19.6,22.3,28.7l0.6-20.5c-1.9-2.4-3.8-4.9-5.6-7.4c-16.5-22.6-30.8-47.7-42.7-73c-12-25.5-19.3-52.7-16.5-80.9
					c2.4-25,12.5-48.8,26.2-69.6c12.6-19,28.9-36.8,47.4-50.9l0.2-7.7C1804.5,895.1,1787.3,909.4,1773.2,927.3z"/>
				<path class="st8" d="M1821.3,953.9l0.2-7.9c-10.5,7.5-20.7,15.5-29,25.3c-11.8,13.9-18.4,30.5-20.4,48.6
					c-2,18.5,1,37.6,5.8,55.5c4.6,17,11.7,33.4,20.6,48.6c5,8.5,10.5,16.5,16.7,24l0.6-19.2c-10-14.9-18.4-30.8-24.3-48.1
					c-10.8-31.5-16.3-70.2,3.2-99.5C1801.9,970.6,1811.3,961.9,1821.3,953.9z"/>
				<path class="st8" d="M1740.7,1361.2c4.2-25.9,4.4-52.1,0.6-78c-6.9-47.2-28.3-91.6-60.1-127.1c-9.3-10.4-19.6-19.9-30.5-28.4
					v9.4c23.1,20.7,42.2,46.2,56.2,73.6c21.8,42.8,29.7,92,23,139.5c-2,13.9-5.1,27.7-9.4,41.1c-3.8,12.1-9.1,23.4-14,35h14.1
					c4.4-8.7,7.8-18,10.8-27.1C1735.5,1386.8,1738.6,1374.1,1740.7,1361.2z"/>
				<path class="st8" d="M1698.4,1394.5c8.8-20.1,12.5-40.4,10.1-62.4c-4.2-39.4-19.1-77.8-40.5-111c-5.3-8.2-11.1-16-17.3-23.5
					v10.6c13.5,19.2,24.4,40.3,32.5,62c6.8,17.9,11.8,36.7,14.3,55.7c2.7,21.1,0.6,41.2-7.8,60.9c-4.2,10-9.4,19.5-14.1,29.2
					c-1.6,3.4-3.3,6.8-4.8,10.2h12.4c0.7-1.5,1.3-3,2.1-4.6C1689.7,1412.6,1694.4,1403.7,1698.4,1394.5z"/>
				<path class="st8" d="M1775.6,1417.8c0.2-14.8,2.6-29.8,5.4-44.3c5.2-27.4,14.1-54.6,29.9-77.8l0.2-7.3l0.2-8.1
					c-10.1,11.5-18.6,24.6-25.2,38.5c-7.5,15.6-12.8,32-16.6,48.9c-3.6,15.9-6.4,32.5-6.9,48.8c-0.1,3.1-0.1,6.4,0.2,9.9h13.2
					C1775.6,1423.4,1775.5,1420.6,1775.6,1417.8z"/>
				<path class="st8" d="M1804,1245.4c2.7-2.8,5.6-5.3,8.6-7.6l0.3-10.3c-14.3,8.2-26.4,21.4-35.1,34.5
					c-15.6,23.6-22.5,51.3-25.8,79.1c-2.1,17.5-2.7,34.9-1.8,52.5c0.3,6,8.5,5.8,9.2,0c3.2-28.7,3.1-57.7,10.5-85.7
					C1776,1284.6,1786.9,1262.6,1804,1245.4z"/>
			</g>
			<rect x="673.5" y="736.6" class="st6" width="977.2" height="689.7"/>
			<g>
				<path class="st9" d="M917.3,766.4H841c-8.8,0-16,7.2-16,16v18.7c0,8.8,7.2,16,16,16h76.3c8.8,0,16-7.2,16-16v-18.7
					C933.3,773.6,926.1,766.4,917.3,766.4z"/>
				<path class="st9" d="M1091.9,766.4h-76.3c-8.8,0-16,7.2-16,16v18.7c0,8.8,7.2,16,16,16h76.3c8.8,0,16-7.2,16-16v-18.7
					C1107.9,773.6,1100.7,766.4,1091.9,766.4z"/>
				<path class="st9" d="M1005.3,839.7H929c-8.8,0-16,7.2-16,16v18.7c0,8.8,7.2,16,16,16h76.3c8.8,0,16-7.2,16-16v-18.7
					C1021.3,846.9,1014.2,839.7,1005.3,839.7z"/>
				<path class="st9" d="M1275.5,766.4h-76.3c-8.8,0-16,7.2-16,16v18.7c0,8.8,7.2,16,16,16h76.3c8.8,0,16-7.2,16-16v-18.7
					C1291.5,773.6,1284.3,766.4,1275.5,766.4z"/>
				<path class="st9" d="M1188.9,839.7h-76.3c-8.8,0-16,7.2-16,16v18.7c0,8.8,7.2,16,16,16h76.3c8.8,0,16-7.2,16-16v-18.7
					C1205,846.9,1197.8,839.7,1188.9,839.7z"/>
				<path class="st9" d="M1459.1,766.4h-76.3c-8.8,0-16,7.2-16,16v18.7c0,8.8,7.2,16,16,16h76.3c8.8,0,16-7.2,16-16v-18.7
					C1475.1,773.6,1467.9,766.4,1459.1,766.4z"/>
				<path class="st9" d="M1372.6,839.7h-76.3c-8.8,0-16,7.2-16,16v18.7c0,8.8,7.2,16,16,16h76.3c8.8,0,16-7.2,16-16v-18.7
					C1388.6,846.9,1381.4,839.7,1372.6,839.7z"/>
			</g>
			<g>
				<path class="st9" d="M917.3,925.1H841c-8.8,0-16,7.2-16,16v18.7c0,8.8,7.2,16,16,16h76.3c8.8,0,16-7.2,16-16v-18.7
					C933.3,932.3,926.1,925.1,917.3,925.1z"/>
				<path class="st9" d="M1091.9,925.1h-76.3c-8.8,0-16,7.2-16,16v18.7c0,8.8,7.2,16,16,16h76.3c8.8,0,16-7.2,16-16v-18.7
					C1107.9,932.3,1100.7,925.1,1091.9,925.1z"/>
				<path class="st9" d="M1005.3,998.4H929c-8.8,0-16,7.2-16,16v18.7c0,8.8,7.2,16,16,16h76.3c8.8,0,16-7.2,16-16v-18.7
					C1021.3,1005.5,1014.2,998.4,1005.3,998.4z"/>
				<path class="st9" d="M1275.5,925.1h-76.3c-8.8,0-16,7.2-16,16v18.7c0,8.8,7.2,16,16,16h76.3c8.8,0,16-7.2,16-16v-18.7
					C1291.5,932.3,1284.3,925.1,1275.5,925.1z"/>
				<path class="st9" d="M1188.9,998.4h-76.3c-8.8,0-16,7.2-16,16v18.7c0,8.8,7.2,16,16,16h76.3c8.8,0,16-7.2,16-16v-18.7
					C1205,1005.5,1197.8,998.4,1188.9,998.4z"/>
				<path class="st9" d="M1459.1,925.1h-76.3c-8.8,0-16,7.2-16,16v18.7c0,8.8,7.2,16,16,16h76.3c8.8,0,16-7.2,16-16v-18.7
					C1475.1,932.3,1467.9,925.1,1459.1,925.1z"/>
				<path class="st9" d="M1372.6,998.4h-76.3c-8.8,0-16,7.2-16,16v18.7c0,8.8,7.2,16,16,16h76.3c8.8,0,16-7.2,16-16v-18.7
					C1388.6,1005.5,1381.4,998.4,1372.6,998.4z"/>
			</g>
			<g>
				<path class="st9" d="M917.3,1083.8H841c-8.8,0-16,7.2-16,16v18.7c0,8.8,7.2,16,16,16h76.3c8.8,0,16-7.2,16-16v-18.7
					C933.3,1090.9,926.1,1083.8,917.3,1083.8z"/>
				<path class="st9" d="M1091.9,1083.8h-76.3c-8.8,0-16,7.2-16,16v18.7c0,8.8,7.2,16,16,16h76.3c8.8,0,16-7.2,16-16v-18.7
					C1107.9,1090.9,1100.7,1083.8,1091.9,1083.8z"/>
				<path class="st9" d="M1005.3,1157H929c-8.8,0-16,7.2-16,16v18.7c0,8.8,7.2,16,16,16h76.3c8.8,0,16-7.2,16-16V1173
					C1021.3,1164.2,1014.2,1157,1005.3,1157z"/>
				<path class="st9" d="M1275.5,1083.8h-76.3c-8.8,0-16,7.2-16,16v18.7c0,8.8,7.2,16,16,16h76.3c8.8,0,16-7.2,16-16v-18.7
					C1291.5,1090.9,1284.3,1083.8,1275.5,1083.8z"/>
				<path class="st9" d="M1188.9,1157h-76.3c-8.8,0-16,7.2-16,16v18.7c0,8.8,7.2,16,16,16h76.3c8.8,0,16-7.2,16-16V1173
					C1205,1164.2,1197.8,1157,1188.9,1157z"/>
				<path class="st9" d="M1459.1,1083.8h-76.3c-8.8,0-16,7.2-16,16v18.7c0,8.8,7.2,16,16,16h76.3c8.8,0,16-7.2,16-16v-18.7
					C1475.1,1090.9,1467.9,1083.8,1459.1,1083.8z"/>
				<path class="st9" d="M1372.6,1157h-76.3c-8.8,0-16,7.2-16,16v18.7c0,8.8,7.2,16,16,16h76.3c8.8,0,16-7.2,16-16V1173
					C1388.6,1164.2,1381.4,1157,1372.6,1157z"/>
			</g>
			<rect x="836.4" y="905.2" class="st1" width="15.9" height="496.2"/>
			<rect x="1465.7" y="905.2" class="st1" width="15.9" height="496.2"/>
			<path class="st10" d="M1441.6,1080.1c5.3-5.7,9.7-12.5,12.7-19.9c10.3-25.1-1.3-56.7,18-78.5c3.7-4.2-1-11.2-6.2-8.1
				c-23.7,14.2-18.2,44.2-20.9,67.9c-6.5-15.1-20.7-28.7-35.1-39.1c-22.5-16.2-48.9-32.1-55.5-57.4c-5.2-19.8,3.6-40.7,16.9-57
				c8-9.8,17.6-18.5,24.4-29c6.8-10.5,10.6-23.5,5.6-34.8c-8.8-20.1-38.5-23.7-62.2-21.1c-15.2,1.7-31.7,5.6-40.3,17
				c-11.4,15.2-3.6,35.5-2.6,53.9c1.5,27-14.2,54.1-39.5,68.4c-25.3,14.2-59.1,14.9-85,1.8c-10.2-5.2-19.3-12.3-30.4-15.6
				c-16.4-4.9-35.6,0.1-47.6,11.3c-12.1,11.2-17,28.1-14,43.5c1.8,9,6,17.6,7.2,26.7c3.2,24.6-17.2,47.4-41.5,58.7
				c-24.3,11.3-52.1,13.9-78.9,18.7c-26.8,4.8-54.5,12.8-72.4,31.5c-11.5,12-17.8,27.4-21.9,42.8c-9.7,36.2-8.2,74.6,3.4,110.2
				c12,37.1,28.4,86,65.4,108.8c62.3,38.6,139.4,36.1,209.9,21.7c75.7-15.4,148.6-42,215.1-78.4c24.2-13.3,47.8-28,66.3-47.5
				c9.6-10.2,17.9-21.8,21.5-34.8c7.2-26.2-5.3-53.5-20.7-76.6c-8.9-13.3-19.2-27.5-17.4-42.9
				C1417.8,1106.3,1432.5,1094.2,1441.6,1080.1z"/>
			<path class="st11" d="M1305.4,1225.2c2.9-20.1,18.4-35.7,31.7-51c13.3-15.4,25.8-34.9,21.1-54.7c-7.7-31.7-55.1-44.5-56.3-77.1
				c-0.7-19.4,15.8-34.3,26.5-50.4c2.1-3.1,3.9-7.4,1.6-10.3c-1.9-2.4-5.4-2.4-8.4-2.1c-30.9,3.4-60,21.1-77.1,47.1
				c-16.4,24.9-25.3,59.3-53.5,69c-24.6,8.4-51.5-7.3-77.2-3.4c-23.4,3.6-42.6,25.3-43.3,48.9c-0.2,7.7,1.3,15.4,0.4,23
				c-1.6,14.2-11.1,26.5-22.6,34.9c-19.8,14.5-45,19.5-66.5,31.3c-28.8,15.8-50.3,44.3-57.6,76.3c-4.8,21.1-3.4,43.4,3.5,63.9
				c4.2,3.8,8.7,7.3,13.6,10.4c62.3,38.6,139.4,36.1,209.9,21.7c70.4-14.4,138.3-38.3,200.9-70.9c-3.3-10.2-7.9-20.1-13.4-29.2
				C1323.6,1278.1,1301.3,1253.6,1305.4,1225.2z"/>
			<rect x="673.5" y="736.6" class="st2" width="113.8" height="689.7"/>
			<path class="st7" d="M702.4,1046.2c-11.9,24-21.2,49-28.9,74.6v305.5h113.8V940C751.4,967.5,722.6,1005.4,702.4,1046.2z"/>
			<rect x="1511.9" y="736.6" class="st2" width="138.8" height="689.7"/>
			<path class="st7" d="M1588.1,946.2c6,32.1,14,63.9,24.1,95c-20.2-52.7-55.5-99.5-100.3-133.7v518.8h138.8v-382.9
				C1634.6,1008.2,1613.5,975.4,1588.1,946.2z"/>
			<path class="st10" d="M1005.3,963.1c-1.6,6.7-2.2,13.6-3.6,20.4c-1.4,6.8-3.3,13.4-5.7,19.9c-1.9,5.3,6.4,7.4,8.3,2.3
				c5-12.9,10.3-27.3,10.6-41.2C1015.1,959,1006.5,957.7,1005.3,963.1z"/>
			<path class="st10" d="M945.8,1018c-0.4-2.9-4.6-4-5.5-0.7c-2.6,10.2-2.7,20.9-3.3,31.3c-0.3,5.1,7.6,5.1,8,0
				C945.8,1038.4,947.1,1028.1,945.8,1018z"/>
			<path class="st10" d="M918.8,946.4c-2,6.2-3.2,12.6-4.5,18.9c-1,5.1,6.7,7.2,7.8,2.1c1.4-6.7,2.8-13.3,3.5-20.2
				C926,943.3,919.9,942.8,918.8,946.4z"/>
			<path class="st10" d="M1086.2,893.7c-0.1-0.5-0.1-1-0.2-1.6c0-0.8-0.1-1.5-0.5-2.1c-0.2-0.7-0.6-1.3-1.2-1.8
				c-1-1-2.6-1.7-3.9-1.6c-1.4,0.1-2.9,0.5-3.9,1.6c-0.3,0.4-0.6,0.8-0.9,1.1c-0.5,0.9-0.8,1.8-0.8,2.8c-0.1,0.5-0.1,1-0.2,1.6
				c0,0.8,0.1,1.5,0.5,2.2c0.2,0.7,0.6,1.3,1.2,1.8c1,1,2.6,1.7,4.1,1.7c1.5-0.1,3-0.6,4.1-1.7
				C1085.5,896.7,1086.4,895.2,1086.2,893.7z"/>
			<path class="st10" d="M1174.1,883.3c-6.1,0-6.1,9.4,0,9.4C1180.2,892.7,1180.2,883.3,1174.1,883.3z"/>
			<path class="st10" d="M1231.5,860.8c-5.5,0-5.5,8.6,0,8.6C1237,869.3,1237,860.8,1231.5,860.8z"/>
			<path class="st10" d="M1007.9,1057.1c-3.7,0-3.7,5.7,0,5.7C1011.5,1062.9,1011.5,1057.1,1007.9,1057.1z"/>
			<path class="st10" d="M1037.8,1024.3c-0.8-0.8-2.1-1.4-3.2-1.3c-1.2,0.1-2.4,0.4-3.2,1.3c-0.8,0.9-1.3,2-1.3,3.2v1.9
				c0,1.2,0.5,2.4,1.3,3.2c0.8,0.8,2.1,1.4,3.2,1.3c1.2-0.1,2.4-0.4,3.2-1.3c0.8-0.9,1.3-2,1.3-3.2v-1.9
				C1039.1,1026.3,1038.6,1025.1,1037.8,1024.3z"/>
			<path class="st10" d="M1042.3,981.9c-7,0-7,10.9,0,10.9C1049.2,992.8,1049.3,981.9,1042.3,981.9z"/>
			<path class="st10" d="M1408.5,952.1c-0.6-1.8-1.7-3.2-3.1-4.3c-0.9-0.7-2.8-0.7-3.8,0c-1.4,1.1-2.7,2.5-3.1,4.3
				c-0.4,1.5-0.3,3.1-0.3,4.7c0,2.8,2.5,5.4,5.3,5.3c2.8-0.1,5.3-2.3,5.3-5.3C1408.8,955.3,1408.9,953.5,1408.5,952.1z"/>
			<path class="st10" d="M1424.5,899.3c-7.5,0-7.6,11.7,0,11.7C1432.1,911,1432.1,899.3,1424.5,899.3z"/>
			<path class="st10" d="M1459.9,943.8c-1-0.9-2.1-1.4-3.5-1.4c-0.5,0-0.9,0-1.4,0c-1.2,0-2.6,0.6-3.5,1.4c-0.9,0.9-1.5,2.3-1.4,3.5
				c0.1,1.3,0.5,2.6,1.4,3.5c0.9,0.9,2.2,1.5,3.5,1.4c0.5,0,0.9,0,1.4,0c1.3,0,2.5-0.5,3.5-1.4c0.8-0.8,1.5-2.2,1.4-3.5
				C1461.3,946,1460.9,944.7,1459.9,943.8z"/>
			<path class="st10" d="M1464.6,891.3c-5.5,0-5.5,8.6,0,8.6C1470.2,899.9,1470.2,891.3,1464.6,891.3z"/>
			<path class="st10" d="M1461.6,1109.3c-0.3-1-0.8-1.9-1.6-2.6c-0.8-0.7-1.8-1.3-2.9-1.2c-1.2,0.1-2.1,0.5-2.9,1.2
				c-0.8,0.7-1.4,1.5-1.6,2.6c-0.2,0.7-0.2,1.5-0.2,2.3c-0.1,1.2,0.6,2.6,1.4,3.4c0.8,0.8,2.2,1.5,3.4,1.4c1.2-0.1,2.5-0.5,3.4-1.4
				c0.8-0.9,1.5-2.1,1.4-3.4C1461.7,1110.9,1461.7,1110,1461.6,1109.3z"/>
			<path class="st10" d="M1491.9,1052.3c-0.1-1.2-1-2.5-2.4-2.4c-1.4,0.1-2.3,1.1-2.4,2.4c0,0.6-0.1,1.3-0.1,1.9
				c-0.1,1.3,1.2,2.6,2.5,2.5c1.3-0.1,2.6-1.1,2.5-2.5C1492,1053.6,1491.9,1053,1491.9,1052.3z"/>
			<path class="st10" d="M1083.5,845.1l-0.3-1.8c-0.1-0.6-0.6-1.1-1-1.5c-0.5-0.4-1.1-0.6-1.7-0.6c-0.5,0-1,0.2-1.4,0.4
				c-0.6,0.3-1.2,1.1-1.3,1.7l-0.3,1.8c-0.2,1.1-0.1,2.3,0.8,3.1c0.6,0.6,1.4,0.9,2.2,0.9c0.8,0,1.7-0.4,2.2-0.9
				c0.4-0.4,0.7-0.9,0.8-1.4C1083.7,846.2,1083.7,845.6,1083.5,845.1z"/>
			<path class="st10" d="M1072.8,788.9c-4.5,0-4.5,6.9,0,6.9C1077.3,795.9,1077.3,788.9,1072.8,788.9z"/>
			<path class="st10" d="M998.3,791.7c-5.8,0-5.8,9.1,0,9.1C1004.1,800.8,1004.1,791.7,998.3,791.7z"/>
			<path class="st10" d="M870.2,957.7c-3.7,0-3.8,5.8,0,5.8C874,963.5,874,957.7,870.2,957.7z"/>
		</g>
		<g>
			<path class="st12" d="M740.2,1358.5c-26.4-2.7-53.9,9.8-69.3,31.4c-15.4,21.6-18.2,51.6-7.1,75.7c11.2,24.2,34.2,40.8,57.5,53.8
				c115,64.5,252.9,69,384.8,71.9c39.8,0.9,79.8,1.8,119.5-1.5c46.1-3.8,91.5-13.2,136.7-22.6c64.5-13.5,129.3-27.2,190.7-51.1
				c43.1-16.7,86-40,111.8-78.3c25.7-38.4,28.7-95.1-3.8-127.9c-23.5-23.7-60-30.2-93-25.7c-33.1,4.5-63.9,18.4-95,30.7
				c-172.1,68-363.3,86.5-545.2,52.9c-36.1-6.7-71.9-15.3-108.5-17.7c-36.6-2.4-74.7,2-106.7,19.9"/>
			<path class="st13" d="M1664.7,1437.9c25.7-38.4,28.7-95.1-3.8-127.9c-23.5-23.7-60-30.2-93-25.7c-33.1,4.5-63.9,18.4-95,30.7
				c-172.1,68-363.3,86.5-545.2,52.9c-36.1-6.7-71.9-15.3-108.5-17.7c-26.8-1.7-54.3,0.1-79.7,8.3c0.2,0,0.5,0,0.7,0.1l-27.7,11.6
				c8.6-4.8,17.7-8.7,27-11.6c-26.2-2.4-53.3,10-68.6,31.5c-15.4,21.6-18.2,51.6-7.1,75.7c9.6,20.9,28,36,47.8,48.1
				c8.8-6.4,16.7-14.6,23.9-22.8c13.2-15.2,25.7-31.9,43.4-41.6c17.1-9.3,37.5-11.1,56.8-8.2c2.8,0.4,5.7,1,8.1,2.6
				c6.7,4.5,6.2,14.4,4.9,22.4c-5.2,31.1-10.7,63.3-2.6,93.7c0.7,2.6,1.5,5.1,2.4,7.6c39.2,9.2,79.7,14.6,120.5,18
				c4-4.6,7.8-9.3,11.3-14.1c17-23,32.8-49,58.6-61.3c13.5-6.4,28.5-8.6,43.4-10.1c80.9-8.6,162.6-3.4,243.7-9.1
				c81.1-5.7,164.3-23.4,229.6-71.9c17.4-12.9,33.6-28,53.6-36.2c-3.2,38.9-27.4,76.6-18.2,114.5c0.2,0.6,0.3,1.2,0.5,1.9
				C1620.4,1484.1,1646.7,1464.7,1664.7,1437.9z"/>
			<path class="st14" d="M1149.1,1479.8c47.9,13,94.2,35.8,127.7,72.4c24,26.2,41.9,59.7,73.2,76.8c17,9.2,36.4,12.7,55.5,15.5
				c63.3,9.5,127.3,14.1,191.3,13.8c-20.6-25.7-42.3-54.5-41.1-87.4c0.8-22.2,12.1-42.8,14.4-64.9c1.6-14.9-1-29.9-3.5-44.6
				c-4.5-26.3-9.1-52.6-13.6-78.9c-0.4-2.6-1-5.3-2.9-7.1c-1.9-1.8-4.8-2.2-7.4-2.4c-61.9-5.8-124.1,3.9-185.4,13.8
				c-99.8,16.1-199.5,32.6-299.1,49.6c-8.9,1.5-37.4,3.7-41.6,13.6c-6.8,15.8,19.2,11.9,29.5,12.8
				C1080.7,1466,1115.4,1470.6,1149.1,1479.8z"/>
			<path class="st15" d="M1555.7,1570.9c0.7-18.4,8.6-35.7,12.6-53.7c-19.5,10.1-39.8,18.7-60.7,25.4
				c-38.4,12.5-78.4,19.1-118.3,25.6c-29.2,4.8-58.5,9.6-87.7,14.4c14.1,18,28.6,35.5,48.4,46.3c17,9.2,36.4,12.7,55.5,15.5
				c63.3,9.5,127.3,14.1,191.3,13.8C1576.2,1632.6,1554.5,1603.8,1555.7,1570.9z"/>
			<path class="st16" d="M1402.2,1626.2c-17.2-3.2-34.9-6.7-49.3-16.6c-16.2-11.2-26.2-29.1-37.5-45.2
				c-46.2-65.6-125.1-107-205.4-107.4c-11.3,2.3-24.1,5.1-36.6,8.6c25.5,3.1,50.8,7.4,75.6,14.1c47.9,13,94.2,35.8,127.7,72.4
				c24,26.2,41.9,59.7,73.2,76.8c17,9.2,36.4,12.7,55.5,15.5c54.9,8.2,110.4,12.8,166,13.6
				C1515.1,1647.5,1458.7,1636.9,1402.2,1626.2z"/>
			<path class="st15" d="M1550.1,1375.3c-1.9-1.8-4.8-2.2-7.4-2.4c-61.9-5.8-124.1,3.9-185.4,13.8c-99.8,16.1-199.5,32.6-299.1,49.6
				c-8.9,1.5-37.4,3.7-41.6,13.6c-6.8,15.8,19.2,11.9,29.5,12.8c34.7,3.3,69.4,7.9,103.1,17.1c14.5,3.9,28.8,8.8,42.7,14.6
				c44.7-0.7,89.5-0.5,134.1-3.6c81.1-5.7,164.3-23.4,229.6-71.9c1.1-0.8,2.2-1.7,3.3-2.5c-1.9-11.3-3.9-22.6-5.8-33.9
				C1552.6,1379.8,1552,1377.1,1550.1,1375.3z"/>
			<g>
				<path class="st17" d="M997.2,1385.7c-27.8,8.9-54.5,20.9-79.5,35.8c-16.2,9.7-32.1,20.9-43.2,36.1c-8.4,11.5-13.9,25-17,38.9
					c-6,26.7-2.5,56.8,15.4,77.5c17.9,20.6,52.3,27.4,73.4,10c7.8-6.4,13.2-15.3,18.1-24.2c7.4-13.2,14.2-26.7,20.5-40.4
					c6.2-13.7,12.1-27.9,22.6-38.7c26.4-27.2,80.1-12.8,114.9-12.7c48.5,0.1,97-1,145.5-3.4c67.7-3.3,135.2-18.6,200.9-35.2
					c28.4-7.1,57.1-15.1,82.2-30.1c31.2-18.7,56.2-48.9,64.6-84.3c27.6,40.9,23.4,97.3,8.7,144.4c-6.1,19.5-13.9,39-13.8,59.4
					c0.3,36.5,29.8,70.6,65.9,76.2c-3.7-5.9-15.6-19.1-14.4-26c5.3,8.3,14.5,13.2,23.6,17c61.1,25.6,135.5,16.1,188.1-24.1
					c-14.5,4.1-27.3,3.5-42.4,2.1c22.3-5.9,42.6-19.1,57-37.1c-52.9,18.9-114.6,11-161.1-20.7c20.2,7.4,42.5,9.2,63.6,5.2
					c-17.7-5.6-35.4-12-50.7-22.6c-15.3-10.6-28-25.9-32-44c-4.9-21.9,3.3-44.4,5.2-66.7c2.1-23.8-3.2-48.5-16.5-68.3
					c-13.3-19.9-34.7-34.5-58.3-37.9c12.8,1,20.8-0.4,33.6,0.6c-11.2-5.2-23.2-8.5-35.5-9.7c-40.5-33.9-86.7-67.4-131.4-95.4
					c-18.5-11.6-37.6-22.9-58.3-29.9c-22.4-7.6-46.1-10.1-69.6-12.3c-31-2.9-62.2-5.3-93.1-1.2c-55.2,7.3-105.3,34.8-157.1,55
					c-88.2,34.5-184.7,49.5-266.3,97.7c-22.5,13.3-47.1,6.7-70.9,17.7c-24.6,11.4-37.5,39.7-61.4,52.6c-10.9,5.9-23.4,8.1-34.2,14.1
					c-25.3,14.1-35.5,45.3-38.3,74.1c-1.9,19.8,2.1,44.8,21,50.9c13.4,4.4,28-3.7,37.3-14.4c9.2-10.7,15-24,23.8-35
					c25.9-32.6,71.8-40,113.3-42.4C897.5,1391.5,951.6,1381.8,997.2,1385.7z"/>
				<path class="st11" d="M1106.9,1202.1c34-14.7,66.6-32.9,101.5-45.5c67.3-24.3,141.1-26.4,211.9-15.9c20.3,3,40.4,7,60.3,11.7
					c-10.8-5.9-21.9-11.2-33.5-15.1c-22.4-7.6-46.1-10.1-69.6-12.3c-31-2.9-62.2-5.3-93.1-1.2c-55.2,7.3-105.3,34.8-157.1,55
					c-27.8,10.9-56.5,19.8-85.2,28.5c6.1,2.7,12.5,4.6,19.2,5.2C1077.1,1214,1092.5,1208.3,1106.9,1202.1z"/>
				<path class="st18" d="M1888.4,1526.7c-52.9,18.9-114.6,11-161.1-20.7c20.2,7.4,42.5,9.2,63.6,5.2c-17.7-5.6-35.4-12-50.7-22.6
					c-15.3-10.6-28-25.9-32-44c-4.9-21.9,3.3-44.4,5.2-66.7c2.1-23.8-3.2-48.5-16.5-68.3c-13.3-19.9-34.7-34.5-58.3-37.9
					c12.8,1,20.8-0.4,33.6,0.6c-11.2-5.2-23.2-8.5-35.5-9.7c0,0,0,0,0,0c-7.6,0.5-15.3,1.3-22.9,2.1c11,2.9,20.8,10.1,26.8,19.8
					c-10.9-0.1-21.3-9.6-31.7-6.1c6.9,1.4,13.4,5.3,17.8,10.8c-6.2,0.1-12.4,0.1-18.6,0.2c6.7,1.3,12.5,6.6,14.4,13.2
					c-7.7-1.3-15.3-2.6-23-3.9c8.2,5.6,13,15.4,13.2,25.3c1-3,1.8-6.1,2.6-9.2c27.6,40.9,23.4,97.3,8.7,144.4
					c-6.1,19.5-13.9,39-13.8,59.4c0.3,36.5,29.8,70.6,65.9,76.2c-3.7-5.9-15.6-19.1-14.4-26c5.3,8.3,14.5,13.2,23.6,17
					c61.1,25.6,135.5,16.1,188.1-24.1c-14.5,4.1-27.3,3.5-42.4,2.1C1853.7,1558,1874,1544.8,1888.4,1526.7z"/>
				<path class="st19" d="M1322.8,1334.7c-20.1,2-39.7,9.1-56.5,20.3c-6,4-11.9,8.6-19.1,9.6c-7.1,1-15.6-3.7-15.6-10.9
					c-11.5,2.6-16.2,20-28,19.7c-3-0.1-5.8-1.4-8.7-2.2c-12.6-3.5-25.9,3.3-35.8,11.9c-14.3,12.4-24.9,28.5-36.8,43.2
					c-11.5,14.3-24.5,27.3-38.6,39.1c13.8,1.1,27.3,2.7,38.7,2.7c48.5,0.1,97-1,145.5-3.4c47.2-2.3,78.9-9.2,125.3-19.5
					C1350.2,1424.1,1332.2,1381.8,1322.8,1334.7z"/>
				<path class="st19" d="M919.7,1449.2c24.8-3.4,49.4-8.6,73.5-15.4c10.8-3.1,21.6-6.5,30.8-12.9c7.7-5.3,14-12.4,20.2-19.4
					c12.1-13.7,24.2-27.4,33.3-43.2s15-34,13.4-52.1c-0.8-9.1-3.5-18.3-9.5-25.1c-4.6-5.3-10.8-8.9-17-12.1
					c-41.7-21.8-90.2-29.9-137-24.2c-22.9,9-45.1,19.3-66.4,31.8c-22.5,13.3-47.1,6.7-70.9,17.7c-24.6,11.4-37.5,39.7-61.4,52.6
					c-10.9,5.9-23.4,8.1-34.2,14.1c-25.3,14.1-35.5,45.3-38.3,74.1c-1.9,19.8,2.1,44.8,21,50.9c13.4,4.4,28-3.7,37.3-14.4
					c9.2-10.7,15-24,23.8-35c25.9-32.6,71.8-40,113.3-42.4c45.7-2.6,99.8-12.2,145.4-8.3c-27.8,8.9-54.5,20.9-79.5,35.8
					c-16.2,9.7-32.1,20.9-43.2,36.1c-0.1,0.2-0.2,0.3-0.3,0.5c0.5-0.2,1.1-0.4,1.7-0.6C889.9,1452.7,904.9,1451.2,919.7,1449.2z"/>
				<path class="st19" d="M725.9,1355.4c-0.1-2.3-0.2-4.6-0.2-7c-10.1,4.7-21.2,7.1-30.9,12.5c-25.3,14.1-35.5,45.3-38.3,74.1
					c-1.9,19.8,2.1,44.8,21,50.9c13.4,4.4,28-3.7,37.3-14.4c9.2-10.7,15-24,23.8-35c4.1-5.2,8.7-9.7,13.7-13.7
					c-7.7-8-15-16.5-19.5-26.5C727.2,1383.5,726.4,1369.3,725.9,1355.4z"/>
				<path class="st14" d="M1018.1,1216.4c0,0,75.7-18.6,78.7,26.4c2.9,45-104.9,267.5-259.2,173.8
					C837.5,1416.7,1060.4,1314.2,1018.1,1216.4z"/>
				<g>
					<path class="st18" d="M789.6,1190.3c-21.7,24.5-34.1,55.6-45.1,86.5c-3.1,8.6-5.9,18.5-1.3,26.3c2.6,4.4,7.1,7.3,11.8,9.4
						c14,6.4,29.8,7.4,45.3,8.2c4.5,0.2,9.2,0.5,13.6-0.5c8.6-1.9,15.5-8.1,21.3-14.7c24.2-27.9,35.1-66.1,44.7-101
						c3.7-13.6,8.1-30-2.5-41.7c-9.6-10.6-24.7-9.8-37.2-5.9C820.5,1162.8,803,1175.1,789.6,1190.3z"/>
					<path class="st11" d="M755.4,1277.2c11.2-15.6,17.3-34.3,25.9-51.5c13.9-27.7,34.9-51.7,60.3-69.4c-0.5,0.1-1,0.3-1.6,0.5
						c-19.5,6-37,18.3-50.5,33.5c-21.7,24.5-34.1,55.6-45.1,86.5c-1.3,3.7-2.6,7.7-3.3,11.6C747.1,1287.1,751.8,1282.2,755.4,1277.2
						z"/>
					<path class="st17" d="M1028.2,1166.2c0,0-81.4-36.7-121.9-25.4c-40.5,11.3-129.8,40.5-129.5,141.2c0,0-102.9,26.1-102,69.6
						c0.9,43.5,26.7,58.8,46.9,63.5c20.2,4.7,29.5-4.8,59.2,7.8c29.7,12.5,123.5,24.6,235.5-77.3
						C1016.4,1345.5,1104,1237.2,1028.2,1166.2z"/>
					<path class="st12" d="M823.6,1397.7c9.7-1.6,19.7,3.6,26,11.2c6.3,7.6,9.7,17.2,12.2,26.7c1.4,5.3,2.7,10.7,5.4,15.5
						c2.7,4.8,7.2,8.9,12.6,9.6c5.6,0.8,11.3-2.3,14.9-6.6c3.7-4.3,5.7-9.8,7.2-15.3c1.8-6.2,3.2-12.5,4.1-18.8
						c0.5-3.2,0.8-6.5,0-9.7c-0.9-3.6-3.3-6.7-5.6-9.6c-4.5-5.8-9.3-11.7-15.7-15.2c-6.4-3.6-15-4.2-20.7,0.4
						C857.3,1391.2,831.4,1394.3,823.6,1397.7z"/>
					<path class="st20" d="M876,1448.1c-1.9-3.7-2.3-7.9-3-12c-2.1-13.1-7-25.7-14.3-36.8c5.7-1.8,12.1,0.6,16.6,4.5
						c4.5,3.9,7.5,9.3,10.4,14.5c-2.1-8.6-4.2-17.2-6.3-25.9c-0.2-0.7-0.3-1.3-0.1-2c0.3-0.9,1.3-1.3,2.2-1.6c1.8-0.7,3.5-1.3,5.3-2
						c-0.7-0.5-1.4-0.9-2.2-1.4c-6.4-3.6-15-4.2-20.7,0.4c-6.7,5.4-32.6,8.5-40.4,11.9c9.7-1.6,19.7,3.6,26,11.2
						c6.3,7.6,9.7,17.2,12.2,26.7c1.4,5.3,2.7,10.7,5.4,15.5c2.7,4.8,7.2,8.9,12.6,9.6c3.4,0.5,6.9-0.5,9.9-2.3
						C883.9,1456.5,878.8,1453.4,876,1448.1z"/>
					<path class="st11" d="M784.7,1267.3c13.3-24.1,21.8-51.3,39.8-72.1c25.2-29,64.4-40.6,101.4-51c4.4-1.3,9-2.6,13.1-4.6
						c-12.1-1.4-23.5-1.3-32.7,1.2c-39.5,11-125.3,39.1-129.3,133.7c0.8-0.1,1.6-0.4,2.3-0.8
						C781.8,1272.3,783.3,1269.7,784.7,1267.3z"/>
					<path class="st19" d="M708.8,1362.8c33.2,1.5,66-6.8,97.8-16.3c21.2-6.3,42.7-13.4,60.4-26.7c2.8-2.1,5.7-4.9,5.6-8.4
						c-0.1-1.8-1-3.5-2.1-5c-7.8-11.1-21.8-15.7-35.1-18.5c-19.3-4.1-38.9-5.7-58.6-6.8c0,0.3,0,0.6,0,0.9c0,0-94.8,24.1-101.6,64.5
						c0.2,0.5,0.4,1,0.7,1.4C681.8,1359.1,696.2,1362.3,708.8,1362.8z"/>
					<path class="st11" d="M762.5,1286.9c0-0.3,0-0.5,0-0.8c-26.7,8.5-82.2,29.8-87.4,60.3c0.2,0.5,0.4,1,0.7,1.4
						c0.7,1.4,1.6,2.7,2.6,3.9c17.1-19.4,40.6-33.2,64.1-44.8C751.5,1302.7,761.8,1296.8,762.5,1286.9z"/>
					<path class="st21" d="M1028.2,1328.6c-7.2-44.4-21-87.7-41-128c-3.9-7.9-11.6-26.2-19.8-23.3c-11.1,3.9-19.2,13.9-23.5,24.8
						c-4.3,10.9-5.3,22.9-5.9,34.6c-1.2,21.6-1.5,43.2-0.9,64.9c0.5,16.5,1.5,33.2,6.2,49c2.8,9.2,6.9,18.2,13.3,25.4
						c3,3.4,6.5,6.2,10.3,8.6c16-10.6,32.6-23.4,49.6-38.9C1016.4,1345.5,1021.5,1339.2,1028.2,1328.6z"/>
					<path class="st18" d="M1024.5,1166.4c-31.8-5.1-48.3,0-62,8.8c-9.5,6.1-14.8,17.2-13.7,28.4c4,42.2,18.4,148.1,62.3,161.4
						c55,16.6,128.7-5.7,124.2-46.5C1130.8,1277.8,1068.3,1173.5,1024.5,1166.4z"/>
					<path class="st22" d="M1008.1,1332.1c-16.8-21.6-27.8-47.2-35.2-73.5c-8.2-28.8-12-60.4-1.3-88.4c-3.2,1.5-6.2,3.1-9.1,5
						c-9.5,6.1-14.8,17.2-13.7,28.4c4,42.2,18.4,148.1,62.3,161.4c13.6,4.1,28.3,5.8,42.6,5.5
						C1035.9,1361.5,1020.4,1347.9,1008.1,1332.1z"/>
					<path class="st18" d="M913.3,1279.1c-10.5-3.3-22.4,1.1-33.2,0.9c-9.5-0.2-19.4-2.4-26.8-8.5c-5.5-4.5-11.9,3.6-6.9,8.4
						c8.2,7.7,18.7,12.4,29.8,14c6.1,0.9,12.4,1.1,18.5,0.7c6.7-0.4,14-0.7,19.7-4.6C918,1287.5,917.9,1280.6,913.3,1279.1z"/>
					<path class="st18" d="M798.2,1268.2c-8.5,6.4-20.3,4.5-29.9,7.4c-4.9,1.5-5,9.2-0.4,11c6.5,2.6,13.6,1,19.8-1.6
						c6.5-2.7,10.1-7.2,15-11.9C805.6,1270.3,801.2,1265.9,798.2,1268.2z"/>
					<path class="st18" d="M885.7,1380.9c-7.3-3.7-17.6-0.5-25.1,1.1c-8,1.7-15.9,3.7-23.7,6c-16.3,4.8-32.3,10.7-48.6,15.4
						c-21.5,6.2-45.4,10.6-67.7,6.5c0.2-4.5-2.3-8.5-3.6-12.9c-0.9-3-1.6-6-2.2-9.1c19.8-3,28.6-28.9,24.3-38
						c-4.2-8.9-39.2-6.9-55.3-5.4c-5.5,0.5-9.9,4.8-10.2,10.3c-1.3,20.7,21.7,29.1,21.7,29.1c4.3,2.2,8.3,3.5,12.1,4
						c0,3.4,0.3,6.8,0.9,10.2c0.5,2.9,1,6.2,2,9.1c-3.1-1-6.1-2.1-9-3.5c-3.9-1.8-6.5,4-2.8,6c27.1,14.9,58.7,13.9,88.1,7
						c16.9-4,33.2-9.6,49.8-14.7c8.5-2.6,17-5,25.6-6.8c7.7-1.6,18.2-1.2,24.7-5.8C889.7,1387.3,889,1382.6,885.7,1380.9z"/>
					<path class="st18" d="M757,1379.4c-1.2-1.6-3.1-2.5-5.1-2.3c-2,0.2-3.8,1.5-4.6,3.3c-0.4,0.9-0.6,1.9-0.5,2.9
						c0.1,1,0.4,1.9,1,2.8c0.1,0.1,0.2,0.2,0.2,0.4c1,1.6,3.1,2.4,4.9,2.2c1.8-0.2,3.7-1.4,4.4-3.1c0.1-0.1,0.1-0.3,0.2-0.4
						c0.4-0.9,0.6-1.9,0.5-2.9C758,1381.2,757.6,1380.2,757,1379.4z"/>
					<path class="st18" d="M763.2,1361.9c-5.7,0.6-4.8,9.4,0.9,8.8C769.7,1370.2,768.9,1361.4,763.2,1361.9z"/>
					<path class="st18" d="M783.6,1371.1c-4.5,0.4-3.8,7.4,0.7,7C788.8,1377.6,788.1,1370.6,783.6,1371.1z"/>
				</g>
				<path class="st23" d="M759.4,1255.7c-15.7,9.6-25.6,26.8-30.1,44.7c-4.5,17.9-4.2,36.6-3.5,55c0.5,13.9,1.3,28.1,6.9,40.8
					c5.6,12.6,15.5,22.6,25.2,32.3c12.1,12.2,25.4,25,42.4,27.8"/>
				<path class="st21" d="M887,1573.7c-2-5-3.5-10.2-4.6-15.4c-2.3-10.6-2.5-21.7-1.3-32.5c0.4-3.1-4.6-3.6-5.4-0.7
					c-3.1,11.4-3.7,23.1-2,34.8c0.9,5.9,2.4,11.6,4.4,17.2c1.9,5.1,3.7,11.6,8.4,14.7c2.6,1.7,6.5-0.5,6.3-3.6
					C892.6,1583,888.9,1578.4,887,1573.7z"/>
				<path class="st21" d="M923.7,1582.3c-1.6-5-2.9-10.1-3.7-15.2c-1.7-10.8-1.9-22.7,0.6-33.4c0.8-3.5-4.5-5-5.4-1.5
					c-2.8,11.7-4.7,23.1-3.9,35.2c0.4,5.9,1.3,11.8,2.7,17.5c1.3,5,2.5,11.9,7.2,14.7c2.2,1.3,5.6,0.1,6.1-2.5
					C928.4,1592.1,925.2,1587.1,923.7,1582.3z"/>
				<path class="st21" d="M1392.9,1219.6c-36.6,10-57.3,43.7-65.2,78.8c-8.5,37.4-8.3,80.3,13.1,113.6c10.2,15.8,25.6,31.1,44,36.8
					c8.2,2.5,13.7-10,5.9-14c-13.5-6.8-25-14.7-33.8-27.3c-9.3-13.2-14.8-28.4-17.4-44.3c-2.9-17.4-1.9-35.5,0.7-52.9
					c2.6-17.2,7.3-34.4,16.3-49.5c8.9-15,22-27.9,38.7-33.4C1400,1225.9,1398,1218.2,1392.9,1219.6z"/>
			</g>
		</g>
		<path class="st24" d="M1901,610.4c-29.2-8.7-57.1-21.5-82.7-37.9c9.3-14.6,25.4-24.6,42.6-26.6c-21.7-9.5-47.5-9-68.8,1.2
			c9.3-15.5,18.5-30.9,27.8-46.4c-35.3,5.4-68.7,22.7-93.4,48.4c4-14.1,7.9-28.3,11.9-42.4c-20.4,7.6-30.5,34.5-52,37.7
			c-22.6,3.3-39.5-21.8-61.9-26.5c15.5,2.6,31.5,1.4,46.5-3.3c-38.2-11.3-79.1-13.7-118.4-6.9c10.6,9.3,21.3,18.6,31.9,27.9
			c-34-0.6-67.9-8.1-98.9-22c2.2,9.1,5.9,17.9,10.8,25.8c-11.8-1.2-23.8,0.2-35,3.9c-2.2-0.2-4.3-0.5-6.5-0.6
			c8.4-14,16.8-28.1,25.2-42.1c-35.3,5.4-68.7,22.7-93.4,48.4c4-14.1,7.9-28.3,11.9-42.4c-17.4,6.5-27.4,27.1-43.3,34.9
			c-2.4-1.9-4.7-3.9-6.9-6c-0.1,2.8,0.1,5.5,0.5,8.3c-0.8,0.2-1.5,0.3-2.3,0.5c-22.6,3.3-39.5-21.8-61.9-26.5
			c15.5,2.6,31.5,1.4,46.5-3.3c-38.2-11.3-79.1-13.7-118.4-6.9c10.6,9.3,21.3,18.6,31.9,27.9c-34-0.6-67.9-8.1-98.9-22
			c2.8,11.4,7.8,22.3,14.8,31.8c-5.8,0.8-11.6,1.3-17.5,1.5c-21.2-4.7-43.1-6.1-64.7-4c6.3,7.5,12.7,15,19,22.5
			c-1.1,0.4-2.3,0.7-3.4,1.1c-11.8,0.7-23.6-0.5-35-3.5c8.2-11.1,17.3-21.5,27.3-31.1c-19.9,8.3-41,13.5-62.5,15.5
			c-5.4-3.5-10.4-7.5-15.1-12c-0.2,4.3,0.3,8.6,1.4,12.8c-11.9,0.4-23.9-0.3-35.7-1.9c8.4,2.2,16.8,4.4,25.2,6.5
			c0,0-10.5,5.4-19.4,9c-7.9-0.2-15.8,0.3-23.6,1.4c-4.4-1-8.8-2.4-13.1-3.9c8.2-6.7,16.4-13.5,24.6-20.2c-17.9,4-36.1,7-54.3,9
			c-18.9-6.8-37.9-11.9-58.6-9.8c1.3-0.7,2.5-1.4,3.8-2.1c-34.2,12-71.8,14-107.1,5.9c9.4,5.2,18.9,10.4,28.3,15.6
			c-23.5,8.4-47.5,15.5-71.8,21.2c10.7-17.2,23.6-33.1,38.2-47.1c-35.1,14.6-74.2,19.7-111.9,14.5c8.4,2.2,16.8,4.4,25.2,6.5
			c0,0-24,12.3-30.3,12.1c-14.5-0.4-29.2-6.8-42.5-11.9c-23.2-9-46.2-17.3-71.7-14.7c4.4,6.1,10,11.4,14.3,17.5
			c-23.9,8.7-45.3,18.5-62.6,38.2c13-0.7,26.2,0.9,38.7,4.5c-11.4,9.1-23.9,16.7-37.3,22.5c30.2,6.8,62.8,2.3,90.1-12.5
			c-16.7,11.5-30.3,27.6-38.8,46c28.2-16.4,60.2-26.2,92.8-28.5c-10,9-20,18.1-30,27.1c34.6-2.7,68.3-15.5,96-36.5
			c-8.6,10.2-16,21.4-21.9,33.4c25.7-17.1,57.1-25.4,87.9-23.3c-11.9,11.1-25.6,20.3-40.3,27.2c36-5.9,70.4-20.5,99.7-42.2
			c-9.8,9.8-18.5,20.7-26,32.3c17.5-8.1,35.6-14.9,54.2-20.1c14.7,0.5,29.4-1.5,43.5-5.9c-8.6,7.3-18,13.6-27.9,18.8
			c7.8,0,15.5-0.6,23.3-1.6c-4.4,6-8.2,12.5-11.4,19.3c20.1-11.7,42.1-20,64.9-24.6c-3.2,8.7-4.4,18.2-3.3,27.4
			c1.6-1.5,3.2-3,4.8-4.4c22.2-2.1,43.9-8.5,63.8-18.4c3.6,2.6,7.4,4.8,11.4,6.8c-1.7,2.9-3.2,5.8-4.7,8.8c3.4-2.3,6.9-4.4,10.5-6.3
			c11.1,4.4,23.1,6.5,35,5.8c-3.9-5-6.9-10.7-8.9-16.8c4.6-1.4,9.3-2.6,14-3.5c6.4,4.2,13.1,8.1,20,11.5c-7.3,5-15,9.5-23,13.2
			c11.5-1.9,22.8-4.7,33.8-8.3c9.8,4.1,19.9,7.4,30.2,9.8c-2.5-6.2-5.1-12.3-7.6-18.5c3.3-1.5,6.6-3.1,9.9-4.7
			c3.7,2.2,7.4,4.2,11.2,6.1c-1.3,1.9-2.6,3.8-3.9,5.7c2.7-1.3,5.4-2.5,8.2-3.7c16.8,7.6,34.9,12.3,53.2,13.7
			c-4.5-9.4-9-18.8-13.5-28.2c2.4-0.7,4.8-1.4,7.1-2.1c6.6,3.7,13.5,7,20.6,9.8c-1.9,1.1-3.9,2.2-5.9,3.3c4.4,0,8.8-0.2,13.1-0.6
			c19.3,6.7,39.7,10.2,60.1,10.1c-0.3,3.6-0.2,7.3,0.2,10.9c4.3-4.1,8.8-7.9,13.5-11.5c6.6-0.6,13.1-1.5,19.6-2.8
			c-4.7,0.2-9.5-0.3-14.1-1.3c7.4-5.3,15.2-10,23.2-14.1c14.9,5.5,29.3,12.1,43,20c-0.7-1.6-1.3-3.2-1.9-4.8
			c11.7,5.1,24.7,7.6,37.4,6.8c-3.5-4.5-6.2-9.5-8.2-14.8c17.2,9.7,36.5,15.6,56.1,16.9c-0.6-0.7-1.2-1.4-1.8-2.1
			c6.5,2.3,13.2,4.3,20,5.8c-4.1-9.9-8.2-19.8-12.2-29.8c13.3,5.9,26.1,12.8,38.5,20.5c0-0.8-0.1-1.6-0.1-2.4
			c14.4,5.6,29.6,9,44.9,10.2c-5.5-11.4-10.9-22.9-16.4-34.3c1.2,0.1,2.4,0.1,3.6,0.2c37.6,23.4,84.3,31.9,127.7,23.1
			c-21.6,0.7-43.1-11.6-53.4-30.6c37.1,4.6,73.2,16.6,105.6,35.2c-5.5-13.2-8.2-27.5-8-41.8c22.7,26.7,56.5,43.6,91.5,45.9
			c-8.9-10.1-15.2-22.5-18.2-35.7c21.9,7.7,42.9,17.9,62.6,30.2c-0.3-12.3-4.2-24.5-11.2-34.7C1834.1,623.5,1869.9,623,1901,610.4z
			 M1504.4,550.5c1,1.2,2,2.3,3.1,3.5c-2-0.7-4.1-1.4-6.1-2C1502.4,551.4,1503.4,551,1504.4,550.5z M855.1,538.5
			c3.2,4.4,7,8.4,10.6,12.7c-2.8,0-5.7,0-8.5,0c2.6,2.4,5.5,4.4,8.5,6.2c-8.2,3.1-16.2,6.4-23.7,10.2c-8,1.4-16,3.2-23.9,5.4
			C827.5,558.8,840.3,547,855.1,538.5z M1262.6,635.1c-4.4-2.6-8.5-5.7-12.2-9.3c6.5-2.3,12.8-5,18.9-8.1c0.3,0.1,0.7,0.2,1,0.2
			C1266.9,623.2,1264.3,629,1262.6,635.1z"/>
		<path class="st10" d="M1895.9,612.3c-46.9-1.7-93.3-15.2-133.7-39.1c-2.1,10.9-4.2,21.8-6.3,32.7c-22.6-10.7-44.7-22.4-66.2-35.1
			c3.9,6.3,6.6,13.3,7.7,20.6c-19-2.6-37.5-9.1-54.1-18.9c2.1,6.5,4.3,12.9,6.4,19.4c-18.8-2.2-37.1-8.9-52.7-19.5
			c1,7.6,1.9,15.2,2.9,22.8c-18.5-3.9-36.3-11.4-52.1-21.8c0,6.5-0.1,8.8-0.1,15.3c-24.8,1.9-50.1-3.6-71.9-15.5
			c4.5,8.6,6.9,18.4,6.9,28.1c-18.9-3.7-37.1-11-53.3-21.4c1.5,10.6-1.9,21.8-9,29.9c-7.4-8.5-16.2-15.8-26-21.5
			c-0.3,6.8-0.6,13.7-0.9,20.5c-15-10.1-30.9-18.8-47.4-26.2c1.3,5.7,2.6,11.4,3.9,17.1c-16.7-7.4-32.5-17.1-46.7-28.6
			c-4.6,10.2-14.1,18.1-25.1,20.8c-2.3-6.1-4.5-12.1-6.8-18.2c-9.8,7.5-19.5,14.9-29.3,22.4c-2.9,2.2-6,4.5-9.7,4.9
			c-3.6,0.4-7.1-1.3-10.4-3c-10.6-5.5-20.7-11.9-30.2-19.1c1.9,7.1,3.9,14.3,5.8,21.4c-19.6-2.9-39-7.3-58.1-12.9
			c7,5.5,13.9,11.1,20.9,16.6c-10.9,1.3-25.6-2.3-36.5-3.5c-28.1-3.1-56-8.2-83.4-15.3c1.7,7.6,5.6,14.8,11.1,20.3
			c-21.8-0.2-43.5-3.1-64.6-8.5c-0.1,4.2-0.2,8.5-0.2,12.7c-9.5-3.4-18.9-6.8-28.4-10.2c-1.1-0.4-2.3-0.8-3.4-0.3
			c-1.1,0.5-1.6,1.7-1.9,2.8c-2.5,7.3-8,10.8-10.6,18.1c-4.3-9.6-9.8-18.6-16.2-26.9c-6.7,10.2-13.4,20.4-20.1,30.6
			c-1.1-10.5-1.7-21-1.7-31.5c-10.6,7.7-22.2,14.1-34.4,19c-0.3-8.5,2.2-17,7.1-24c-16.7,11.7-35.7,20-55.7,24.4
			c3.5-5,7.1-9.9,10.6-14.9c-2,1.6-4.9,2.5-7.5,3.1c-16,4-31.9,8-47.9,12c1.4-6.7,1.9-15.2,6.9-19.9c-25.3,8.6-50.7,17.2-76,25.8
			c5.2-8.9,10-18.1,14.4-27.5c-3.9,3.8-9.4,5.4-14.7,6.9c-19.3,5.4-38.6,10.8-57.8,16.2c6.7-7,13.4-14,20.2-21
			c-23,7.9-46.3,15-69.8,21.4c0.2-7.3,9-23.5,9.2-30.8c-3.4,12.8-19.2,17-32.3,19c-16.4,2.5-32.8,4.9-49.2,7.4
			c4.5-8.1,11.8-14.6,20.3-18.2c-17.3,7-35.3,12.3-53.6,15.7c-8.3,5.5-17,10.4-26.1,14.4c30.2,6.8,62.8,2.3,90.1-12.5
			c-16.7,11.5-30.3,27.6-38.8,46c28.2-16.4,60.2-26.2,92.8-28.5c-10,9-20,18.1-30,27.1c34.6-2.7,68.3-15.5,96-36.5
			c-8.6,10.2-16,21.4-21.9,33.4c25.7-17.1,57.1-25.4,87.9-23.3c-11.9,11.1-25.6,20.3-40.3,27.2c36-5.9,70.4-20.5,99.7-42.2
			c-9.8,9.8-18.5,20.7-26,32.3c17.5-8.1,35.6-14.9,54.2-20.1c14.7,0.5,29.4-1.5,43.5-5.9c-8.6,7.3-18,13.6-27.9,18.8
			c7.8,0,15.5-0.6,23.3-1.6c-4.4,6-8.2,12.5-11.4,19.3c20.1-11.7,42.1-20,64.9-24.6c-3.2,8.7-4.4,18.2-3.3,27.4
			c1.6-1.5,3.2-3,4.8-4.4c22.2-2.1,43.9-8.5,63.8-18.4c3.6,2.6,7.4,4.8,11.4,6.8c-1.7,2.9-3.2,5.8-4.7,8.8c3.4-2.3,6.9-4.4,10.5-6.3
			c11.1,4.4,23.1,6.5,35,5.8c-3.9-5-6.9-10.7-8.9-16.8c4.6-1.4,9.3-2.6,14-3.5c6.4,4.2,13.1,8.1,20,11.5c-7.3,5-15,9.5-23,13.2
			c11.5-1.9,22.8-4.7,33.8-8.3c9.8,4.1,19.9,7.4,30.2,9.8c-2.5-6.2-5.1-12.3-7.6-18.5c3.3-1.5,6.6-3.1,9.9-4.7
			c3.7,2.2,7.4,4.2,11.2,6.1c-1.3,1.9-2.6,3.8-3.9,5.7c2.7-1.3,5.4-2.5,8.2-3.7c16.8,7.6,34.9,12.3,53.2,13.7
			c-4.5-9.4-9-18.8-13.5-28.2c2.4-0.7,4.8-1.4,7.1-2.1c6.6,3.7,13.5,7,20.6,9.8c-1.9,1.1-3.9,2.2-5.9,3.3c4.4,0,8.8-0.2,13.1-0.6
			c19.3,6.7,39.7,10.2,60.1,10.1c-0.3,3.6-0.2,7.3,0.2,10.9c4.3-4.1,8.8-7.9,13.5-11.5c6.6-0.6,13.1-1.5,19.6-2.8
			c-4.7,0.2-9.5-0.3-14.1-1.3c7.4-5.3,15.2-10,23.2-14.1c14.9,5.5,29.3,12.1,43,20c-0.7-1.6-1.3-3.2-1.9-4.8
			c11.7,5.1,24.7,7.6,37.4,6.8c-3.5-4.5-6.2-9.5-8.2-14.8c17.2,9.7,36.5,15.6,56.1,16.9c-0.6-0.7-1.2-1.4-1.8-2.1
			c6.5,2.3,13.2,4.3,20,5.8c-4.1-9.9-8.2-19.8-12.2-29.8c13.3,5.9,26.1,12.8,38.5,20.5c0-0.8-0.1-1.6-0.1-2.4
			c14.4,5.6,29.6,9,44.9,10.2c-5.5-11.4-10.9-22.9-16.4-34.3c1.2,0.1,2.4,0.1,3.6,0.2c37.6,23.4,84.3,31.9,127.7,23.1
			c-21.6,0.7-43.1-11.6-53.4-30.6c37.1,4.6,73.2,16.6,105.6,35.2c-5.5-13.2-8.2-27.5-8-41.8c22.7,26.7,56.5,43.6,91.5,45.9
			c-8.9-10.1-15.2-22.5-18.2-35.7c21.9,7.7,42.9,17.9,62.6,30.2c-0.3-12.3-4.2-24.5-11.2-34.7C1832.4,622.8,1866,623,1895.9,612.3z
			 M1262.6,635.1c-4.4-2.6-8.5-5.7-12.2-9.3c6.5-2.3,12.8-5,18.9-8.1c0.3,0.1,0.7,0.2,1,0.2C1266.9,623.2,1264.3,629,1262.6,635.1z"
			/>
	</g>
</g>
</svg>
